<svg width="27" height="38" xmlns="http://www.w3.org/2000/svg" xmlns:xlink="http://www.w3.org/1999/xlink" xmlns:svgjs="http://svgjs.com/svgjs" viewBox="0.149 0 26.703 38" fill="#fff"><svg xmlns="http://www.w3.org/2000/svg" width="27" height="38" viewBox="2 1.999 26 37"><path paint-order="stroke fill markers" fill-rule="evenodd" d="M22.15 15.596V8.52C22.15 4.924 18.942 2 15 2S7.85 4.924 7.85 8.52c0 .353.29.638.65.638.36 0 .65-.285.65-.638 0-2.891 2.624-5.243 5.85-5.243 3.226 0 5.85 2.352 5.85 5.243v6.34c-.122-.06-.247-.114-.37-.171a13.144 13.144 0 0 0-1.29-.513c-.17-.057-.338-.114-.51-.163a13.13 13.13 0 0 0-1.238-.296c-.34-.064-.682-.117-1.026-.154-.079-.009-.156-.013-.235-.02-.393-.037-.786-.06-1.181-.06-7.168 0-13 5.723-13 12.759 0 7.035 5.832 12.758 13 12.758s13-5.723 13-12.758c0-4.444-2.33-8.36-5.85-10.645zM15 37.723c-6.451 0-11.7-5.15-11.7-11.482 0-6.332 5.249-11.483 11.7-11.483a11.871 11.871 0 0 1 1.373.086 11.932 11.932 0 0 1 1.224.209 10.953 10.953 0 0 1 1.552.465c.645.242 1.27.54 1.868.893 3.398 2.012 5.683 5.66 5.683 9.83 0 6.331-5.249 11.482-11.7 11.482zm7.8-12.12H20.81a5.659 5.659 0 0 0-1.245-2.942l1.409-1.382a.629.629 0 0 0 0-.902.658.658 0 0 0-.92 0l-1.408 1.382a5.882 5.882 0 0 0-2.997-1.222v-1.951a.644.644 0 0 0-.65-.638c-.36 0-.65.285-.65.638v1.951a5.882 5.882 0 0 0-2.997 1.222l-1.409-1.382a.658.658 0 0 0-.919 0 .629.629 0 0 0 0 .902l1.409 1.382a5.659 5.659 0 0 0-1.246 2.942H7.2c-.36 0-.65.285-.65.638 0 .353.29.638.65.638h1.988a5.657 5.657 0 0 0 1.246 2.94l-1.409 1.384a.629.629 0 0 0 0 .902.653.653 0 0 0 .46.187.653.653 0 0 0 .46-.187l1.408-1.383c.841.661 1.87 1.1 2.997 1.222v1.952c0 .353.29.638.65.638.36 0 .65-.285.65-.638v-1.952a5.879 5.879 0 0 0 2.997-1.222l1.409 1.383a.653.653 0 0 0 .459.187.653.653 0 0 0 .46-.187.629.629 0 0 0 0-.902l-1.409-1.383a5.657 5.657 0 0 0 1.245-2.941H22.8c.36 0 .65-.285.65-.638a.644.644 0 0 0-.65-.638zM15 30.706c-2.509 0-4.55-2.003-4.55-4.465 0-2.462 2.041-4.466 4.55-4.466 2.508 0 4.55 2.004 4.55 4.466s-2.042 4.465-4.55 4.465z"/></svg></svg>