<svg width="35" height="32" xmlns="http://www.w3.org/2000/svg" xmlns:xlink="http://www.w3.org/1999/xlink" xmlns:svgjs="http://svgjs.com/svgjs" viewBox="0 0.044 35 31.912" fill="#fff"><svg xmlns="http://www.w3.org/2000/svg" width="35" height="32" viewBox="2 1.999 34 31"><path paint-order="stroke fill markers" fill-rule="evenodd" d="M25.67 16.686l-3.637-2.563a.997.997 0 0 0-1.57.814v1.567H2.996a.996.996 0 0 0 0 1.99h17.467v1.568c0 .81.916 1.274 1.57.814l3.638-2.563a.996.996 0 0 0 0-1.627zM20.489 1.999A15.513 15.513 0 0 0 7.052 9.75a.997.997 0 0 0 1.724.997 13.52 13.52 0 0 1 11.712-6.756c7.455 0 13.52 6.06 13.52 13.51 0 7.449-6.065 13.509-13.52 13.509a13.52 13.52 0 0 1-11.712-6.756.997.997 0 0 0-1.724.997A15.512 15.512 0 0 0 20.488 33C29.06 33 36 26.065 36 17.5 36 8.932 29.062 2 20.488 2z"/></svg></svg>