<svg width="30" height="30" xmlns="http://www.w3.org/2000/svg" xmlns:xlink="http://www.w3.org/1999/xlink" xmlns:svgjs="http://svgjs.com/svgjs" fill="#fff"><svg xmlns="http://www.w3.org/2000/svg" width="30" height="30" viewBox="2 1.999 29 29"><path paint-order="stroke fill markers" fill-rule="evenodd" d="M16.5 2C8.505 2 2 8.503 2 16.5 2 24.494 8.505 31 16.5 31S31 24.494 31 16.5C31 8.503 24.495 2 16.5 2zm0 27.49c-7.163 0-12.99-5.828-12.99-12.99 0-7.163 5.827-12.99 12.99-12.99S29.49 9.336 29.49 16.5c0 7.162-5.827 12.99-12.99 12.99zm4.685-20.972a.754.754 0 1 0-.765 1.301 7.78 7.78 0 0 1 3.824 6.68c0 4.27-3.474 7.745-7.744 7.745s-7.745-3.474-7.745-7.745a7.78 7.78 0 0 1 3.825-6.68.755.755 0 0 0-.766-1.3 9.296 9.296 0 0 0-4.568 7.98c0 5.103 4.151 9.254 9.254 9.254s9.254-4.15 9.254-9.254a9.296 9.296 0 0 0-4.569-7.98zM16.5 6.238a.755.755 0 0 0-.755.755V16.5a.755.755 0 1 0 1.51 0V6.993a.755.755 0 0 0-.755-.755z"/></svg></svg>